<?xml version="1.0" encoding="UTF-8"?>
<svg width="40px" height="40px" viewBox="0 0 40 40" version="1.1" xmlns="http://www.w3.org/2000/svg" xmlns:xlink="http://www.w3.org/1999/xlink">
    <!-- Generator: Sketch 51.1 (57501) - http://www.bohemiancoding.com/sketch -->
    <title>baseline-explore-24px</title>
    <desc>Created with Sketch.</desc>
    <defs></defs>
    <g id="Page-1" stroke="none" stroke-width="1" fill="none" fill-rule="evenodd">
        <g id="Home" transform="translate(-100.000000, -903.000000)">
            <g id="baseline-explore-24px" transform="translate(96.000000, 899.000000)">
                <path d="M24,21.8 C22.78,21.8 21.8,22.78 21.8,24 C21.8,25.22 22.78,26.2 24,26.2 C25.22,26.2 26.2,25.22 26.2,24 C26.2,22.78 25.22,21.8 24,21.8 Z M24,4 C12.96,4 4,12.96 4,24 C4,35.04 12.96,44 24,44 C35.04,44 44,35.04 44,24 C44,12.96 35.04,4 24,4 Z M28.38,28.38 L12,36 L19.62,19.62 L36,12 L28.38,28.38 Z" id="Shape" fill="#00C6FF" fill-rule="nonzero"></path>
                <polygon id="Shape" points="0 0 48 0 48 48 0 48"></polygon>
            </g>
        </g>
    </g>
</svg>