<?xml version="1.0" encoding="UTF-8"?>
<svg width="115px" height="40px" viewBox="0 0 115 40" version="1.1" xmlns="http://www.w3.org/2000/svg" xmlns:xlink="http://www.w3.org/1999/xlink">
    <!-- Generator: Sketch 51.1 (57501) - http://www.bohemiancoding.com/sketch -->
    <title>ioms_logo</title>
    <desc>Created with Sketch.</desc>
    <defs></defs>
    <g id="Page-1" stroke="none" stroke-width="1" fill="none" fill-rule="evenodd">
        <g id="Home" transform="translate(-104.000000, -120.000000)">
            <g id="ioms_logo" transform="translate(98.000000, 116.000000)">
                <g id="✱-/-Text-/-H5-/-White-/-High-Emphasis--/-Left" transform="translate(49.000000, 7.000000)" fill="#FFFFFF">
                    <path d="M6.13676,10.86314 C4.61776,10.86314 3.4937,9.73908 3.4937,8.28084 C3.4937,6.85298 4.61776,5.72892 6.13676,5.72892 C7.62538,5.72892 8.74944,6.85298 8.74944,8.28084 C8.74944,9.73908 7.62538,10.86314 6.13676,10.86314 Z M3.85826,29 L3.85826,16.90876 L1.2152,16.90876 L1.2152,12.98974 L8.26336,12.98974 L8.26336,29 L3.85826,29 Z M20.27042,29.39494 C15.25772,29.39494 11.73364,25.74934 11.73364,21.01006 C11.73364,16.2404 15.2881,12.5948 20.27042,12.5948 C25.28312,12.5948 28.77682,16.27078 28.77682,21.01006 C28.77682,25.74934 25.25274,29.39494 20.27042,29.39494 Z M20.27042,25.17212 C22.64006,25.17212 24.28058,23.3797 24.28058,21.01006 C24.28058,18.61004 22.64006,16.81762 20.27042,16.81762 C17.90078,16.81762 16.22988,18.61004 16.22988,21.01006 C16.22988,23.3797 17.90078,25.17212 20.27042,25.17212 Z M31.91292,29 L31.91292,12.98974 L36.3484,12.98974 L36.3484,14.44798 L36.68258,14.44798 C37.22942,13.59734 38.44462,12.5948 40.32818,12.5948 C42.4244,12.5948 43.76112,13.56696 44.551,14.93406 L44.88518,14.93406 C45.70544,13.68848 47.1333,12.5948 49.32066,12.5948 C52.63208,12.5948 55.00172,15.05558 55.00172,18.18472 L55.00172,29 L50.56624,29 L50.56624,19.70372 C50.56624,17.85054 49.53332,16.87838 48.16622,16.87838 C46.76874,16.87838 45.67506,17.9113 45.67506,19.70372 L45.67506,29 L41.26996,29 L41.26996,19.30878 C41.26996,17.78978 40.17628,16.87838 38.80918,16.87838 C37.44208,16.87838 36.3484,17.97206 36.3484,19.64296 L36.3484,29 L31.91292,29 Z M64.548,29.39494 C61.14544,29.39494 58.28972,27.75442 57.83402,24.19996 L61.72266,23.50122 C61.90494,24.98984 63.24166,25.6582 64.76066,25.6582 C66.09738,25.6582 66.76574,25.14174 66.76574,24.38224 C66.76574,21.73918 58.38086,23.95692 58.38086,17.57712 C58.38086,14.81254 60.93278,12.5948 64.48724,12.5948 C67.82904,12.5948 70.1683,14.1138 70.86704,16.9999 L67.03916,18.03282 C66.70498,16.90876 65.73282,16.2404 64.548,16.2404 C63.4847,16.2404 62.75558,16.6961 62.75558,17.39484 C62.75558,19.886 71.2316,17.82016 71.2316,23.95692 C71.2316,27.1772 68.71006,29.39494 64.548,29.39494 Z" id="Headline-5"></path>
                </g>
                <g id="Group-5">
                    <g>
                        <polygon id="Shape" points="0 0 48 0 48 48 0 48"></polygon>
                        <rect id="Rectangle-5" fill="#00C6FF" fill-rule="nonzero" x="6" y="20" width="4" height="8" rx="2"></rect>
                        <rect id="Rectangle-5-Copy-4" fill="#00C6FF" fill-rule="nonzero" x="38" y="20" width="4" height="8" rx="2"></rect>
                        <rect id="Rectangle-5-Copy" fill="#00C6FF" fill-rule="nonzero" x="14" y="16" width="4" height="20" rx="2"></rect>
                        <rect id="Rectangle-5-Copy-3" fill="#00C6FF" fill-rule="nonzero" x="30" y="12" width="4" height="20" rx="2"></rect>
                        <rect id="Rectangle-5-Copy-2" fill="#00C6FF" fill-rule="nonzero" x="22" y="4" width="4" height="40" rx="2"></rect>
                    </g>
                </g>
            </g>
        </g>
    </g>
</svg>